<mxfile host="app.diagrams.net" modified="2023-05-20T21:06:09.981Z" agent="Mozilla/5.0 (Windows NT 10.0; Win64; x64) AppleWebKit/537.36 (KHTML, like Gecko) Chrome/113.0.0.0 Safari/537.36" etag="Px7NW5zT6FJvxYj1tFnb" version="21.2.9" type="device">
  <diagram name="Page-1" id="2QfUPrLu8Je203A76zda">
    <mxGraphModel dx="1687" dy="899" grid="1" gridSize="10" guides="1" tooltips="1" connect="1" arrows="1" fold="1" page="1" pageScale="1" pageWidth="827" pageHeight="1169" math="0" shadow="0">
      <root>
        <mxCell id="0" />
        <mxCell id="1" parent="0" />
        <mxCell id="U5BuoiB8fgUUJdamKoee-1" value="Initial RGB&lt;br&gt;images" style="rounded=1;whiteSpace=wrap;html=1;" parent="1" vertex="1">
          <mxGeometry x="290" y="210" width="120" height="60" as="geometry" />
        </mxCell>
        <mxCell id="U5BuoiB8fgUUJdamKoee-2" value="Initial Radar&lt;br&gt;heatmap" style="rounded=1;whiteSpace=wrap;html=1;" parent="1" vertex="1">
          <mxGeometry x="70" y="210" width="120" height="60" as="geometry" />
        </mxCell>
        <mxCell id="4hSkWzb1-dt_CfhaGeLx-1" value="Camera - Detected Vehicle Extracted" style="rounded=1;whiteSpace=wrap;html=1;" vertex="1" parent="1">
          <mxGeometry x="290" y="470" width="120" height="60" as="geometry" />
        </mxCell>
        <mxCell id="4hSkWzb1-dt_CfhaGeLx-2" value="1b. YoloV5" style="endArrow=classic;html=1;rounded=0;exitX=0.5;exitY=1;exitDx=0;exitDy=0;entryX=0.5;entryY=0;entryDx=0;entryDy=0;" edge="1" parent="1" source="U5BuoiB8fgUUJdamKoee-1" target="4hSkWzb1-dt_CfhaGeLx-1">
          <mxGeometry width="50" height="50" relative="1" as="geometry">
            <mxPoint x="390" y="220" as="sourcePoint" />
            <mxPoint x="440" y="170" as="targetPoint" />
            <Array as="points" />
          </mxGeometry>
        </mxCell>
        <mxCell id="4hSkWzb1-dt_CfhaGeLx-3" value="Filtred heatmap" style="rounded=1;whiteSpace=wrap;html=1;" vertex="1" parent="1">
          <mxGeometry x="70" y="330" width="120" height="60" as="geometry" />
        </mxCell>
        <mxCell id="4hSkWzb1-dt_CfhaGeLx-4" value="1a. Filtration" style="endArrow=classic;html=1;rounded=0;exitX=0.5;exitY=1;exitDx=0;exitDy=0;entryX=0.5;entryY=0;entryDx=0;entryDy=0;" edge="1" parent="1" source="U5BuoiB8fgUUJdamKoee-2" target="4hSkWzb1-dt_CfhaGeLx-3">
          <mxGeometry width="50" height="50" relative="1" as="geometry">
            <mxPoint x="390" y="220" as="sourcePoint" />
            <mxPoint x="440" y="170" as="targetPoint" />
          </mxGeometry>
        </mxCell>
        <mxCell id="4hSkWzb1-dt_CfhaGeLx-5" value="Radar - Detected Vehicle Extacted" style="rounded=1;whiteSpace=wrap;html=1;" vertex="1" parent="1">
          <mxGeometry x="70" y="470" width="120" height="60" as="geometry" />
        </mxCell>
        <mxCell id="4hSkWzb1-dt_CfhaGeLx-6" value="2. CFAR&lt;br&gt;&amp;amp; &lt;br&gt;Island Algorithm" style="endArrow=classic;html=1;rounded=0;exitX=0.5;exitY=1;exitDx=0;exitDy=0;entryX=0.5;entryY=0;entryDx=0;entryDy=0;" edge="1" parent="1" source="4hSkWzb1-dt_CfhaGeLx-3" target="4hSkWzb1-dt_CfhaGeLx-5">
          <mxGeometry width="50" height="50" relative="1" as="geometry">
            <mxPoint x="390" y="220" as="sourcePoint" />
            <mxPoint x="440" y="170" as="targetPoint" />
          </mxGeometry>
        </mxCell>
        <mxCell id="4hSkWzb1-dt_CfhaGeLx-12" value="" style="endArrow=none;startArrow=none;html=1;rounded=0;entryX=0;entryY=0.5;entryDx=0;entryDy=0;exitX=1;exitY=0.5;exitDx=0;exitDy=0;endFill=0;startFill=0;" edge="1" parent="1" source="4hSkWzb1-dt_CfhaGeLx-5" target="4hSkWzb1-dt_CfhaGeLx-1">
          <mxGeometry width="50" height="50" relative="1" as="geometry">
            <mxPoint x="110" y="610" as="sourcePoint" />
            <mxPoint x="160" y="560" as="targetPoint" />
          </mxGeometry>
        </mxCell>
        <mxCell id="4hSkWzb1-dt_CfhaGeLx-13" value="3. Verify the data coherence&lt;br&gt;Couple quality assessment" style="endArrow=classic;html=1;rounded=0;entryX=0.5;entryY=0;entryDx=0;entryDy=0;" edge="1" parent="1">
          <mxGeometry width="50" height="50" relative="1" as="geometry">
            <mxPoint x="240" y="500" as="sourcePoint" />
            <mxPoint x="240" y="630" as="targetPoint" />
          </mxGeometry>
        </mxCell>
        <mxCell id="4hSkWzb1-dt_CfhaGeLx-14" value="Labelized couple &lt;br&gt;data" style="rounded=1;whiteSpace=wrap;html=1;" vertex="1" parent="1">
          <mxGeometry x="180" y="900" width="120" height="60" as="geometry" />
        </mxCell>
        <mxCell id="4hSkWzb1-dt_CfhaGeLx-15" value="4. Merging the data" style="endArrow=classic;html=1;rounded=0;entryX=0.5;entryY=0;entryDx=0;entryDy=0;exitX=0.5;exitY=1;exitDx=0;exitDy=0;" edge="1" parent="1" source="4hSkWzb1-dt_CfhaGeLx-16" target="4hSkWzb1-dt_CfhaGeLx-14">
          <mxGeometry width="50" height="50" relative="1" as="geometry">
            <mxPoint x="240" y="820" as="sourcePoint" />
            <mxPoint x="349.71" y="840" as="targetPoint" />
          </mxGeometry>
        </mxCell>
        <mxCell id="4hSkWzb1-dt_CfhaGeLx-16" value="Cleaned Couple" style="swimlane;whiteSpace=wrap;html=1;" vertex="1" parent="1">
          <mxGeometry x="87" y="630" width="306" height="160" as="geometry" />
        </mxCell>
        <mxCell id="4hSkWzb1-dt_CfhaGeLx-17" value="Radar - Detected Vehicle Extracted" style="rounded=1;whiteSpace=wrap;html=1;" vertex="1" parent="4hSkWzb1-dt_CfhaGeLx-16">
          <mxGeometry y="80" width="120" height="60" as="geometry" />
        </mxCell>
        <mxCell id="4hSkWzb1-dt_CfhaGeLx-18" value="Camera - Detected Vehicle Extracted" style="rounded=1;whiteSpace=wrap;html=1;" vertex="1" parent="4hSkWzb1-dt_CfhaGeLx-16">
          <mxGeometry x="186" y="80" width="120" height="60" as="geometry" />
        </mxCell>
        <mxCell id="4hSkWzb1-dt_CfhaGeLx-21" value="" style="endArrow=none;dashed=1;html=1;dashPattern=1 3;strokeWidth=2;rounded=0;exitX=0.5;exitY=0;exitDx=0;exitDy=0;endFill=0;startArrow=classic;startFill=1;" edge="1" parent="4hSkWzb1-dt_CfhaGeLx-16" source="4hSkWzb1-dt_CfhaGeLx-17">
          <mxGeometry width="50" height="50" relative="1" as="geometry">
            <mxPoint x="153" y="70" as="sourcePoint" />
            <mxPoint x="153" y="22" as="targetPoint" />
            <Array as="points">
              <mxPoint x="60" y="50" />
              <mxPoint x="153" y="50" />
            </Array>
          </mxGeometry>
        </mxCell>
        <mxCell id="4hSkWzb1-dt_CfhaGeLx-22" value="" style="endArrow=none;dashed=1;html=1;dashPattern=1 3;strokeWidth=2;rounded=0;exitX=0.5;exitY=0;exitDx=0;exitDy=0;startArrow=classic;startFill=1;" edge="1" parent="4hSkWzb1-dt_CfhaGeLx-16" source="4hSkWzb1-dt_CfhaGeLx-18">
          <mxGeometry width="50" height="50" relative="1" as="geometry">
            <mxPoint x="106.5" y="90" as="sourcePoint" />
            <mxPoint x="150" y="50" as="targetPoint" />
            <Array as="points">
              <mxPoint x="246" y="50" />
              <mxPoint x="200" y="50" />
            </Array>
          </mxGeometry>
        </mxCell>
      </root>
    </mxGraphModel>
  </diagram>
</mxfile>
